# xmcd
#
# Track frame offsets:
#	150
#	25422
#	49350
#	71897
#	96517
#	118750
#	141037
#	166255
#	190242
#	215327
#	237502
#	261705
#	287492
#	309422
#
# Disc length: 4488 seconds
#
# Revision: 1
# Processed by: cddbd v1.5.1PL2 Copyright (c) Steve Scherf et al.
# Submitted via: dBpowerAMP V4.0
#
DISCID=de11860e
DTITLE=Various Artist - Tangkap Nangis
DYEAR=1997
DGENRE=blues
TTITLE0=Sentuhan Kecundang - Ekamatra
TTITLE1=Srikandi Cintaku - Bloodshed
TTITLE2=Layar Impian - Ella
TTITLE3=Mahligai Syahdu - Hattan
TTITLE4=Fantasia Bulan Madu - Search
TTITLE5=Dari Sinar Mata - BPR
TTITLE6=Puisi Cinta - Illusi
TTITLE7=Lamunan Terhenti - Aris Ariwatan
TTITLE8=Luka Seribu Rindu - Fotograf
TTITLE9=Pada Syurga Diwajahmu - Nash
TTITLE10=Dalam Gerimis - Visa
TTITLE11=Siapa Dihatimu - Rahmat
TTITLE12=Taman Ruhani - Saleem, Arab and Hillary
TTITLE13=Misteri Mimpi Syakila - Wings
EXTD=Compilation, Kamarul
EXTT0=
EXTT1=
EXTT2=
EXTT3=
EXTT4=
EXTT5=
EXTT6=
EXTT7=
EXTT8=
EXTT9=
EXTT10=
EXTT11=
EXTT12=
EXTT13=
PLAYORDER=
